<?xml version="1.0" standalone="yes"?>

<svg version="1.1" viewBox="0.0 0.0 16.0 16.0" fill="none" stroke="none" stroke-linecap="square" stroke-miterlimit="10" xmlns="http://www.w3.org/2000/svg" xmlns:xlink="http://www.w3.org/1999/xlink"><clipPath id="p.0"><path d="m0 0l16.0 0l0 16.0l-16.0 0l0 -16.0z" clip-rule="nonzero"></path></clipPath><g clip-path="url(#p.0)"><path fill="#000000" fill-opacity="0.0" d="m0 0l16.0 0l0 16.0l-16.0 0z" fill-rule="nonzero"></path><path fill="#ffffff" d="m1.5748031 8.0l0 0c0 -3.5485382 2.8766587 -6.4251966 6.4251966 -6.4251966l0 0c1.7040682 0 3.3383417 0.67693853 4.5433006 1.8818967c1.204958 1.204958 1.881896 2.839232 1.881896 4.5433l0 0c0 3.5485382 -2.8766584 6.4251966 -6.4251966 6.4251966l0 0c-3.5485382 0 -6.4251966 -2.8766584 -6.4251966 -6.4251966z" fill-rule="nonzero"></path><path stroke="#000000" stroke-width="3.0" stroke-linejoin="round" stroke-linecap="butt" d="m1.5748031 8.0l0 0c0 -3.5485382 2.8766587 -6.4251966 6.4251966 -6.4251966l0 0c1.7040682 0 3.3383417 0.67693853 4.5433006 1.8818967c1.204958 1.204958 1.881896 2.839232 1.881896 4.5433l0 0c0 3.5485382 -2.8766584 6.4251966 -6.4251966 6.4251966l0 0c-3.5485382 0 -6.4251966 -2.8766584 -6.4251966 -6.4251966z" fill-rule="nonzero"></path><path fill="#000000" d="m5.055118 8.0l0 0c0 -1.6264133 1.3184686 -2.944882 2.944882 -2.944882l0 0c0.7810316 0 1.5300732 0.31026363 2.082346 0.86253595c0.5522728 0.5522723 0.8625355 1.3013148 0.8625355 2.082346l0 0c0 1.6264133 -1.3184681 2.9448814 -2.9448814 2.9448814l0 0c-1.6264133 0 -2.944882 -1.3184681 -2.944882 -2.9448814z" fill-rule="nonzero"></path></g></svg>

