<?xml version="1.0" standalone="yes"?>

<svg version="1.1" viewBox="0.0 0.0 26.0 26.0" fill="none" stroke="none" stroke-linecap="square" stroke-miterlimit="10" xmlns="http://www.w3.org/2000/svg" xmlns:xlink="http://www.w3.org/1999/xlink"><clipPath id="p.0"><path d="m0 0l26.0 0l0 26.0l-26.0 0l0 -26.0z" clip-rule="nonzero"></path></clipPath><g clip-path="url(#p.0)"><path fill="#000000" fill-opacity="0.0" d="m0 0l26.0 0l0 26.0l-26.0 0z" fill-rule="nonzero"></path><path fill="#ffff00" d="m1.5845656 13.004415l0 0c0 -6.270824 5.1117096 -11.354331 11.417322 -11.354331l0 0c3.0280628 0 5.932104 1.1962564 8.073267 3.3256066c2.1411629 2.1293497 3.3440552 5.017369 3.3440552 8.028725l0 0c0 6.2708235 -5.1117096 11.354331 -11.417322 11.354331l0 0c-6.305613 0 -11.417322 -5.0835075 -11.417322 -11.354331z" fill-rule="nonzero"></path><path stroke="#000000" stroke-width="3.0" stroke-linejoin="round" stroke-linecap="butt" d="m1.5845656 13.004415l0 0c0 -6.270824 5.1117096 -11.354331 11.417322 -11.354331l0 0c3.0280628 0 5.932104 1.1962564 8.073267 3.3256066c2.1411629 2.1293497 3.3440552 5.017369 3.3440552 8.028725l0 0c0 6.2708235 -5.1117096 11.354331 -11.417322 11.354331l0 0c-6.305613 0 -11.417322 -5.0835075 -11.417322 -11.354331z" fill-rule="nonzero"></path><path fill="#000000" d="m8.214567 13.001968l0 0c0 -2.6440086 2.1433926 -4.787401 4.787401 -4.787401l0 0c1.2696981 0 2.4873924 0.504385 3.3852043 1.4021969c0.8978119 0.8978119 1.4021969 2.1155062 1.4021969 3.3852043l0 0c0 2.6440086 -2.1433926 4.787401 -4.787401 4.787401l0 0c-2.6440086 0 -4.787401 -2.1433926 -4.787401 -4.787401z" fill-rule="nonzero"></path></g></svg>

